<svg width="20" height="20" viewBox="0 0 20 20" fill="none" xmlns="http://www.w3.org/2000/svg">
<path d="M16.1352 0H3.86525C1.73394 0 0 1.73354 0 3.86485V7.94756V16.1351C0 18.2665 1.73394 20 3.86525 20H16.1356C18.2669 20 20.0004 18.2665 20.0004 16.1351V7.94715V3.86445C20 1.73313 18.2665 0 16.1352 0ZM17.2438 2.30479L17.6859 2.30318V2.74332V5.69319L14.3072 5.70409L14.2955 2.31447L17.2438 2.30479ZM7.14554 7.94715C7.78618 7.06082 8.82542 6.47948 10.0002 6.47948C11.175 6.47948 12.2142 7.06082 12.8541 7.94715C13.2708 8.52567 13.5205 9.23328 13.5205 9.9998C13.5205 11.9407 11.9399 13.5197 9.9998 13.5197C8.0585 13.5197 6.47948 11.9407 6.47948 9.9998C6.47988 9.23328 6.72879 8.52567 7.14554 7.94715ZM18.0514 16.1347C18.0514 17.1921 17.1917 18.051 16.1352 18.051H3.86525C2.80827 18.051 1.94856 17.1921 1.94856 16.1347V7.94715H4.93394C4.67615 8.58134 4.53132 9.27403 4.53132 9.9998C4.53132 13.0146 6.98417 15.4691 10.0002 15.4691C13.0158 15.4691 15.4687 13.0146 15.4687 9.9998C15.4687 9.27403 15.323 8.58134 15.0653 7.94715H18.0514V16.1347Z" fill="#E7FFFE"/>
</svg>
